<?xml version="1.0" encoding="UTF-8" standalone="no"?>
<svg
   height="512"
   viewBox="0 -960 20480 20480"
   width="512"
   fill="#e8eaed"
   version="1.1"
   id="svg1"
   xmlns="http://www.w3.org/2000/svg"
   xmlns:svg="http://www.w3.org/2000/svg">
  <defs
     id="defs1" />
  <path
     id="path1"
     d="M 9274.958,-321.41711 C 8325.9998,-224.91251 7418.0055,2.7770902 6549.4674,364.66799 5680.9293,726.55889 4868.3082,1205.8128 4112.3587,1800.9223 l 769.0179,769.0181 A 8604.6677,8604.6677 0 0 1 9274.958,743.52249 Z m 1930.084,0 v 1053.6304 a 8604.6677,8604.6677 0 0 1 4419.969,1837.72711 l 742.631,-769.0181 C 15627.776,1205.8128 14820.307,726.55889 13943.727,364.66799 13067.147,2.7770902 12154,-224.91251 11205.042,-321.41711 Z M 2760.9225,3199.4797 C 2149.7292,3923.2614 1667.208,4720.9291 1313.3591,5589.4672 959.51029,6458.0053 718.24969,7365.9996 589.57739,8314.9577 H 1703.5228 A 8604.6677,8604.6677 0 0 1 3509.2072,3947.7646 Z m 14958.1555,0 -736.976,736.9755 a 8604.6677,8604.6677 0 0 1 1805.685,4378.5025 h 1102.636 c -96.505,-948.9581 -329.346,-1856.9524 -699.279,-2725.4905 -369.933,-868.5381 -860.873,-1666.2058 -1472.066,-2389.9875 z M 589.57739,10245.042 c 96.5043,948.958 329.3458,1856.953 699.27881,2725.491 369.9326,868.538 860.873,1666.205 1472.0663,2389.987 l 748.2847,-748.285 A 8604.6677,8604.6677 0 0 1 1703.5228,10245.042 Z m 18186.89961,0 a 8604.6677,8604.6677 0 0 1 -1805.684,4367.193 l 748.285,748.285 c 611.193,-723.782 1093.714,-1521.449 1447.563,-2389.987 353.849,-868.538 595.109,-1776.533 723.782,-2725.491 z m -13910.1793,5733.708 -753.939,780.328 c 739.8657,595.109 1538.9156,1074.363 2399.4116,1436.254 860.4963,361.891 1765.2234,589.58 2714.1816,686.085 V 17812.708 A 8604.6677,8604.6677 0 0 1 4866.2977,15978.75 Z m 10732.3263,11.309 a 8604.6677,8604.6677 0 0 1 -4442.588,1830.188 v 1061.17 c 965.043,-96.505 1886.608,-320.927 2763.188,-674.776 876.58,-353.849 1692.468,-836.37 2448.418,-1447.563 z"
     style="fill:#658e90;fill-opacity:1;stroke-width:24.1261" />
  <path
     d="m 15012.081,4714.4461 c -106.364,-108.1978 -250.628,-176.6617 -391.224,-221.8969 a 2322.8888,2322.8888 0 0 0 -509.201,-91.693 c -378.998,-29.9531 -852.134,0 -1376.618,106.9751 -1049.578,215.1729 -2333.891,746.9921 -3525.289,1777.0098 -1191.3973,1030.018 -1936.5556,2276.4313 -2297.2148,3315.0071 -179.7181,517.7598 -268.9659,998.8418 -262.2419,1386.3978 3.0565,193.166 30.5643,378.998 94.1383,537.932 q 15.2821,37.289 34.2319,74.577 a 41567.484,41567.484 0 0 0 -1380.2851,2081.431 323.98186,323.98186 0 0 0 95.9721,440.126 308.08842,308.08842 0 0 0 430.9569,-97.806 41567.484,41567.484 0 0 1 1319.1565,-1992.794 c 174.2167,86.191 376.5525,119.201 585.6125,111.254 313.5899,-12.225 671.1927,-114.922 1053.2468,-299.53 764.108,-369.829 1677.3698,-1092.369 2630.3658,-2226.3057 l 927.933,-947.4942 a 323.98186,323.98186 0 0 0 0,-451.7407 l -445.628,-454.7972 801.397,127.7589 a 305.64328,305.64328 0 0 0 270.8,-91.693 l 405.283,-418.12 c 405.283,-415.6748 789.782,-809.9547 1077.698,-1156.5541 191.944,-231.0662 357.603,-459.6874 460.91,-676.6943 99.64,-210.8938 169.938,-472.5243 68.464,-726.2083 a 305.64328,305.64328 0 0 0 -68.464,-105.1413 M 7631.4073,11493.002 C 8641.2527,10120.053 9775.1891,8800.2854 11039.941,7687.1326 l 739.657,754.3275 -715.817,731.0988 -16.505,18.3385 c -916.929,1093.5916 -1767.229,1752.5586 -2431.0861,2074.0956 -332.5399,160.768 -605.1737,231.066 -809.3435,238.401 a 794.67249,794.67249 0 0 1 -175.4391,-11.003 z M 11769.206,7079.5137 c 800.785,-628.4025 1650.473,-1170.0024 2550.287,-1589.3449 a 4279.0058,4279.0058 0 0 1 -244.514,319.7028 c -270.189,325.8156 -628.403,693.1988 -1027.573,1102.761 l -311.756,320.314 z m 2045.365,-2052.0889 c -2600.413,1286.147 -4769.8692,3519.1766 -6540.155,5889.7462 4.279,-283.637 73.9656,-663.858 226.1759,-1103.984 C 7826.4076,8874.8623 8509.2147,7725.6437 9612.5869,6771.4254 10717.182,5817.2071 11902.466,5328.789 12858.518,5133.1773 a 4890.2924,4890.2924 0 0 1 956.053,-105.7525"
     id="path1-8"
     style="fill:#aca793;stroke-width:611.287" />
</svg>
