<?xml version="1.0" encoding="UTF-8" standalone="no"?>
<svg
   height="24"
   viewBox="0 -960 960 960"
   width="24"
   fill="#e8eaed"
   version="1.1"
   id="svg1"
   xmlns="http://www.w3.org/2000/svg"
   xmlns:svg="http://www.w3.org/2000/svg">
  <defs
     id="defs1" />
  <path
     id="path1"
     d="m 434.76364,-930.06648 c -44.48242,4.52364 -87.04466,15.19659 -127.75739,32.16023 -40.71273,16.96364 -78.80435,39.42867 -114.23949,67.32443 l 36.04772,36.04773 a 403.34386,403.34386 0 0 1 205.94916,-85.61335 z m 90.47272,0 v 49.38892 a 403.34386,403.34386 0 0 1 207.18608,86.14347 l 34.8108,-36.04773 c -34.68121,-27.89576 -72.53134,-50.36079 -113.62103,-67.32443 -41.08968,-16.96364 -83.89343,-27.63659 -128.37585,-32.16023 z m -395.81818,165.04205 c -28.64969,33.92727 -51.267873,71.31795 -67.854544,112.03068 -16.586667,40.71273 -27.895758,83.27497 -33.927272,127.75739 h 52.216198 a 403.34386,403.34386 0 0 1 84.641468,-204.71221 z m 701.16364,0 -34.54575,34.54573 a 403.34386,403.34386 0 0 1 84.64149,205.24234 h 51.68608 c -4.52364,-44.48242 -15.4381,-87.04466 -32.7787,-127.75739 -17.3406,-40.71273 -40.35343,-78.10341 -69.00312,-112.03068 z M 27.636364,-434.76364 c 4.523636,44.48242 15.438087,87.04466 32.778698,127.75739 17.340591,40.71273 40.353428,78.10341 69.003118,112.03068 l 35.07585,-35.07586 A 403.34386,403.34386 0 0 1 79.852562,-434.76364 Z m 852.511076,0 a 403.34386,403.34386 0 0 1 -84.64147,204.71221 l 35.07585,35.07586 c 28.64969,-33.92727 51.26787,-71.31795 67.85454,-112.03068 16.58667,-40.71273 27.89576,-83.27497 33.92728,-127.75739 z m -652.03978,268.76762 -35.3409,36.57784 c 34.68121,27.89576 72.13668,50.360794 112.47244,67.32443 40.33577,16.963636 82.74486,27.636591 127.22728,32.160227 V -80.029256 A 403.34386,403.34386 0 0 1 228.10766,-165.99602 Z m 503.07786,0.53011 A 403.34386,403.34386 0 0 1 522.9392,-79.675847 v 49.742324 c 45.23637,-4.523636 88.43474,-15.043446 129.52444,-31.630113 41.08969,-16.586671 79.33445,-39.204854 114.7696,-67.854544 z"
     style="fill:#658e90;fill-opacity:1;stroke-width:1.13091" />
  <path
     d="m 703.69132,-694.01037 c -4.9858,-5.07177 -11.74816,-8.28102 -18.3386,-10.40142 a 108.88543,108.88543 0 0 0 -23.86883,-4.29811 c -17.76552,-1.40405 -39.94376,0 -64.52895,5.01446 -49.19902,10.08623 -109.4012,35.01526 -165.24797,83.29735 -55.84676,48.2821 -90.77606,106.70773 -107.68196,155.39098 -8.42429,24.26999 -12.60778,46.82073 -12.29259,64.98741 0.14327,9.05468 1.4327,17.76552 4.41273,25.21557 q 0.71635,1.7479 1.60462,3.4958 a 1948.4761,1948.4761 0 0 0 -64.70087,97.56707 15.186652,15.186652 0 0 0 4.49869,20.63093 14.441647,14.441647 0 0 0 20.20111,-4.58465 1948.4761,1948.4761 0 0 1 61.83547,-93.41224 c 8.16641,4.04022 17.6509,5.58754 27.45059,5.21504 14.69953,-0.57308 31.46216,-5.38696 49.37095,-14.04049 35.81757,-17.33571 78.62674,-51.20481 123.29842,-104.35809 l 43.49687,-44.4138 a 15.186652,15.186652 0 0 0 0,-21.17535 l -20.88882,-21.31862 37.56548,5.9887 a 14.327031,14.327031 0 0 0 12.69375,-4.29811 l 18.99764,-19.59938 c 18.99764,-19.48476 37.02105,-37.96663 50.51711,-54.21348 8.99738,-10.83123 16.76263,-21.54785 21.60516,-31.72005 4.67061,-9.88565 7.96583,-22.14958 3.20926,-34.04102 a 14.327031,14.327031 0 0 0 -3.20926,-4.9285 m -345.96913,317.74488 c 47.33651,-64.35702 100.48979,-126.22113 159.77504,-178.40018 l 34.67142,35.35911 -33.55391,34.27026 -0.77366,0.85962 c -42.98109,51.26212 -82.83889,82.15119 -113.9572,97.22323 -15.58781,7.53602 -28.36752,10.83123 -37.93798,11.17508 a 37.250279,37.250279 0 0 1 -8.22371,-0.51577 z m 193.95934,-206.88232 c 37.53682,-29.45637 77.36596,-54.84387 119.54474,-74.50055 a 200.57843,200.57843 0 0 1 -11.46162,14.98607 c -12.6651,15.27261 -29.45638,32.4937 -48.16748,51.69193 l -14.61357,15.01472 z m 95.87649,-96.19168 c -121.89438,60.28815 -223.58764,164.96143 -306.5698,276.08188 0.20058,-13.29549 3.46714,-31.11831 10.602,-51.74924 15.27261,-43.98398 47.2792,-97.85361 98.99978,-142.5826 51.77789,-44.72899 107.33811,-67.62359 152.15306,-76.79289 a 229.23249,229.23249 0 0 1 44.81496,-4.95715"
     id="path1-8"
     style="fill:#aca793;stroke-width:28.6541" />
</svg>
